<?xml version="1.0" standalone="no"?>
<!DOCTYPE svg PUBLIC "-//W3C//DTD SVG 20010904//EN"
 "http://www.w3.org/TR/2001/REC-SVG-20010904/DTD/svg10.dtd">
<svg version="1.0" xmlns="http://www.w3.org/2000/svg"
 width="16.000000pt" height="16.000000pt" viewBox="0 0 16.000000 16.000000"
 preserveAspectRatio="xMidYMid meet">
<metadata>
Created by potrace 1.11, written by Peter Selinger 2001-2013
</metadata>
<g transform="translate(0.000000,16.000000) scale(0.001600,-0.001600)"
fill="#000000" stroke="none">
<path d="M5735 8619 c-27 -11 -59 -27 -70 -37 -29 -24 -79 -92 -69 -92 5 0 4
-4 -2 -8 -17 -11 -31 -63 -30 -110 1 -23 -3 -42 -8 -42 -4 0 -6 -7 -2 -15 4
-12 6 -68 6 -187 -1 -10 0 -48 1 -84 1 -36 -1 -68 -4 -71 -3 -3 -2 -15 2 -27
5 -11 5 -30 1 -41 -4 -11 -4 -30 1 -41 4 -13 3 -26 -4 -33 -8 -8 -7 -11 3 -11
10 0 11 -3 3 -11 -6 -6 -7 -25 -3 -50 5 -24 3 -39 -3 -39 -5 0 -5 -5 2 -13 6
-8 8 -17 4 -20 -3 -4 -5 -30 -4 -59 1 -29 1 -66 1 -83 -1 -35 -1 -29 1 -128 1
-43 -1 -81 -4 -84 -3 -3 -2 -15 2 -27 5 -11 5 -30 1 -41 -4 -11 -4 -30 1 -41
4 -13 3 -26 -4 -33 -8 -8 -7 -11 3 -11 10 0 11 -3 3 -11 -6 -6 -7 -25 -3 -50
5 -24 3 -39 -3 -39 -5 0 -5 -5 2 -13 6 -8 8 -17 4 -20 -3 -4 -5 -30 -4 -59 1
-29 1 -66 1 -83 -1 -35 -1 -29 1 -128 1 -43 -1 -81 -4 -84 -3 -3 -2 -15 2 -27
5 -11 5 -30 1 -41 -4 -11 -4 -30 1 -41 4 -13 3 -26 -4 -33 -8 -8 -7 -11 3 -11
10 0 11 -3 3 -11 -6 -6 -7 -25 -3 -50 5 -24 3 -39 -3 -39 -5 0 -5 -5 2 -13 6
-8 8 -17 4 -20 -3 -4 -5 -30 -4 -59 1 -29 1 -66 1 -83 -1 -35 -1 -29 1 -128 1
-43 -1 -81 -4 -84 -3 -3 -2 -16 3 -29 6 -14 6 -26 0 -29 -5 -3 -6 -15 -1 -28
5 -12 5 -31 2 -42 -7 -20 -7 -28 4 -98 17 -114 109 -203 230 -222 43 -7 146
-8 152 -1 3 2 18 0 34 -4 16 -5 31 -5 34 0 3 5 19 5 35 0 16 -5 32 -5 35 0 3
5 19 5 35 0 16 -5 32 -5 35 0 3 4 20 4 39 0 19 -4 40 -4 46 0 7 4 26 4 41 0
16 -5 31 -5 34 0 3 4 20 4 39 0 19 -4 37 -6 39 -3 3 2 33 3 68 3 35 -1 79 -1
97 -1 59 1 132 0 155 -1 12 0 49 0 82 1 33 0 67 0 75 0 8 0 31 0 50 0 19 1 42
1 50 0 13 -1 101 -1 228 0 62 1 132 0 155 -1 12 0 49 0 82 1 33 0 67 1 75 0 8
0 43 0 77 1 34 1 66 -1 71 -4 4 -2 14 -1 21 4 8 4 27 4 42 0 16 -5 31 -5 34 0
3 4 20 4 39 0 19 -4 40 -4 46 0 7 4 26 4 41 0 16 -5 31 -5 34 0 3 4 20 4 39 0
19 -4 40 -4 46 0 7 4 26 4 41 0 16 -5 31 -5 34 0 3 4 20 4 39 0 19 -4 40 -4
46 0 7 4 26 4 41 0 16 -5 31 -5 34 0 3 4 20 4 39 0 19 -4 36 -6 38 -5 2 1 27
6 56 9 135 16 219 110 229 256 2 36 6 71 8 78 3 6 1 12 -3 12 -4 0 -7 24 -8
53 -1 77 -18 256 -30 317 -2 14 -9 49 -14 78 -5 30 -12 61 -14 70 -3 10 -8 28
-10 42 -21 99 -71 269 -105 355 -56 140 -149 334 -198 412 -18 29 -33 57 -33
63 0 5 -4 10 -10 10 -5 0 -10 6 -10 13 0 8 -9 22 -20 32 -11 10 -17 22 -14 26
3 5 -2 12 -10 15 -9 3 -16 11 -16 18 0 12 -3 16 -128 171 -49 61 -125 146
-169 190 -91 92 -213 205 -220 205 -7 0 -137 104 -141 112 -2 5 -8 8 -13 8 -5
0 -31 16 -58 35 -26 19 -51 35 -55 35 -4 0 -12 5 -19 11 -32 28 -317 174 -417
213 -25 10 -52 21 -60 26 -9 4 -63 22 -120 39 -58 18 -119 37 -136 42 -75 23
-267 61 -379 74 -27 4 -61 8 -75 11 -14 2 -95 6 -180 9 -138 4 -161 2 -205
-16z m375 -524 c86 -10 119 -15 215 -37 133 -29 189 -44 220 -57 11 -5 40 -15
65 -22 25 -7 56 -19 70 -26 14 -7 28 -13 31 -13 4 0 24 -8 45 -17 22 -9 41
-17 44 -18 3 -1 28 -13 55 -27 116 -58 190 -100 205 -113 9 -8 20 -15 24 -15
7 0 134 -87 146 -100 3 -3 28 -23 55 -45 60 -48 133 -115 189 -174 22 -24 52
-56 66 -70 14 -15 41 -47 60 -71 19 -25 37 -47 40 -50 8 -7 111 -165 147 -225
35 -58 121 -237 127 -265 1 -3 7 -14 12 -25 9 -16 20 -50 29 -85 0 -3 6 -14
12 -25 6 -11 14 -33 17 -50 3 -16 14 -60 25 -98 11 -37 22 -82 25 -100 3 -17
8 -43 11 -57 28 -131 37 -223 22 -232 -5 -3 -21 -2 -33 2 -14 6 -26 5 -29 -1
-4 -5 -11 -6 -17 -3 -10 7 -54 7 -166 2 -28 -2 -52 -1 -52 2 0 6 -101 2 -107
-4 -3 -3 -16 -1 -29 4 -14 6 -26 6 -29 0 -3 -5 -16 -6 -28 -1 -12 4 -35 4 -52
1 -16 -3 -40 -3 -52 1 -12 5 -25 4 -28 -1 -3 -5 -16 -6 -28 -1 -12 4 -35 4
-52 1 -16 -3 -40 -3 -52 1 -12 5 -25 4 -28 -1 -3 -5 -16 -6 -28 -1 -12 4 -35
4 -52 1 -16 -3 -40 -3 -52 1 -12 5 -25 4 -28 -1 -3 -5 -16 -6 -28 -1 -12 4
-35 4 -52 1 -16 -3 -40 -3 -52 1 -12 5 -25 4 -28 -1 -3 -5 -16 -6 -28 -1 -12
4 -35 4 -52 1 -16 -3 -40 -3 -52 1 -12 5 -25 4 -28 -1 -3 -5 -16 -6 -28 -1
-12 4 -35 4 -52 1 -16 -3 -40 -3 -52 1 -12 5 -25 4 -28 -1 -3 -5 -16 -6 -28
-1 -12 4 -35 4 -52 1 -16 -3 -40 -3 -52 1 -12 5 -25 4 -28 -1 -3 -5 -15 -6
-26 -2 -11 5 -45 5 -75 2 -30 -3 -54 -4 -54 -1 0 4 -30 5 -67 3 -66 -3 -140
-3 -195 0 l-28 2 -1 200 c-1 111 -1 205 0 210 1 5 2 371 2 813 0 442 3 802 7
799 4 -3 32 -7 62 -11z"/>
<path d="M4467 7994 c-1 -1 -31 -4 -67 -7 -189 -16 -200 -17 -270 -32 -14 -3
-41 -7 -60 -10 -19 -2 -66 -11 -105 -20 -38 -9 -78 -18 -87 -20 -26 -6 -171
-45 -188 -52 -8 -3 -19 -7 -25 -8 -25 -6 -185 -65 -228 -84 -27 -12 -55 -21
-63 -21 -8 0 -14 -4 -14 -10 0 -5 -8 -10 -18 -10 -10 0 -22 -3 -26 -7 -4 -5
-11 -8 -14 -9 -8 0 -235 -117 -267 -136 -11 -7 -60 -37 -110 -68 -168 -102
-361 -250 -488 -372 -27 -27 -51 -48 -53 -48 -2 0 -23 -21 -48 -47 -24 -27
-67 -72 -95 -102 -29 -30 -62 -68 -74 -83 -12 -16 -30 -39 -40 -51 -10 -12
-28 -35 -40 -50 -12 -15 -32 -40 -44 -55 -13 -15 -23 -31 -23 -36 0 -5 -8 -16
-18 -25 -9 -9 -23 -28 -31 -43 -8 -16 -18 -28 -23 -28 -4 0 -8 -4 -8 -10 0 -5
-20 -41 -45 -80 -64 -100 -148 -257 -200 -375 -9 -22 -25 -58 -35 -80 -20 -46
-79 -203 -85 -225 -1 -8 -13 -44 -24 -80 -12 -36 -23 -74 -26 -85 -2 -11 -13
-53 -24 -93 -10 -40 -19 -75 -19 -77 -1 -3 -6 -30 -12 -60 -6 -30 -13 -67 -15
-82 -2 -16 -4 -28 -5 -28 -1 0 -3 -13 -5 -30 -2 -16 -7 -50 -10 -75 -21 -149
-25 -193 -31 -365 -3 -88 -6 -164 -5 -170 7 -181 15 -288 28 -370 2 -16 6 -46
8 -65 2 -19 6 -46 8 -60 3 -14 8 -43 12 -64 3 -21 7 -48 10 -60 3 -12 7 -32 9
-46 3 -14 12 -52 21 -85 9 -33 17 -67 19 -75 5 -32 20 -79 58 -195 100 -302
222 -546 420 -839 32 -47 122 -162 134 -172 8 -6 14 -14 14 -18 0 -4 6 -13 13
-20 6 -7 44 -48 82 -91 59 -66 127 -134 239 -240 43 -41 186 -155 193 -155 5
0 15 -9 23 -20 8 -11 20 -20 26 -20 7 0 14 -4 16 -9 4 -12 233 -161 246 -161
7 0 12 -4 12 -10 0 -5 9 -10 19 -10 11 0 21 -4 23 -8 6 -17 381 -199 423 -206
6 -1 15 -4 20 -7 6 -4 55 -21 110 -38 55 -18 107 -35 115 -39 8 -3 22 -7 30
-8 8 -1 42 -9 75 -19 33 -9 71 -18 85 -21 14 -3 41 -9 60 -14 19 -5 51 -11 70
-14 52 -9 93 -16 116 -21 11 -2 42 -7 70 -10 27 -3 65 -8 84 -10 188 -23 622
-24 760 -1 14 3 51 7 83 11 31 3 92 13 135 21 42 8 93 17 112 20 19 3 39 8 44
11 4 3 20 7 35 8 46 4 333 90 416 125 17 7 35 14 40 15 27 7 234 102 326 150
57 30 107 55 111 55 5 0 8 5 8 10 0 6 5 10 10 10 13 0 190 115 284 184 211
156 428 366 597 576 107 134 268 379 322 490 6 14 15 28 20 31 5 3 8 8 6 10
-1 2 16 42 38 89 61 127 148 343 158 391 2 9 10 37 19 62 8 25 18 56 20 69 3
13 10 39 16 58 6 19 13 44 15 55 3 11 8 34 12 50 3 17 7 37 9 45 1 8 5 26 8
40 4 14 9 43 12 65 3 22 7 46 10 53 2 8 7 35 10 60 10 85 13 107 14 107 3 0
23 351 21 370 -7 88 -37 152 -97 205 -73 64 -103 70 -329 70 -39 0 -80 2 -92
5 -13 2 -25 -1 -28 -6 -4 -5 -10 -7 -15 -4 -6 4 -386 7 -470 4 -8 0 -116 0
-240 1 -124 1 -229 1 -235 -1 -5 -1 -14 -1 -18 0 -7 1 -435 1 -467 0 -8 0
-116 0 -240 1 -124 1 -229 1 -235 -1 -5 -1 -14 -1 -18 0 -21 4 -489 3 -492 -1
-2 -2 -20 -2 -39 0 -30 4 -34 7 -26 22 5 9 7 19 5 22 -4 4 -5 18 -6 128 0 30
-1 76 -2 103 -1 26 2 47 8 47 6 0 5 3 -1 8 -7 4 -8 15 -4 27 4 11 4 32 -1 47
-4 14 -5 29 -1 32 3 3 4 30 3 58 -1 29 -3 74 -4 101 -1 26 2 47 8 47 6 0 5 3
-1 8 -7 4 -8 15 -4 27 4 11 4 32 -1 47 -4 14 -5 29 -1 32 3 3 4 30 3 58 -1 29
-3 74 -4 101 -1 26 2 47 8 47 6 0 5 3 -1 8 -7 4 -8 15 -4 27 4 11 4 32 -1 47
-4 14 -5 29 -1 32 3 3 4 30 3 58 -1 29 -3 74 -4 101 -1 26 2 47 8 47 6 0 5 3
-1 8 -7 4 -8 15 -4 27 4 11 4 32 -1 47 -4 14 -5 29 -1 32 3 3 4 30 3 58 -1 29
-3 74 -4 101 -1 26 2 47 8 47 6 0 5 3 -1 8 -7 4 -8 15 -4 27 4 11 4 32 -1 47
-4 14 -5 29 -1 32 3 3 4 30 3 58 -1 29 -3 74 -4 101 -1 26 2 47 8 47 6 0 5 3
-1 8 -7 4 -8 15 -4 27 4 11 4 32 -1 47 -4 14 -5 29 -1 32 3 3 4 30 3 58 -1 29
-3 74 -4 101 -1 26 2 47 8 47 6 0 5 3 -1 8 -7 4 -8 15 -4 27 4 11 4 32 -1 47
-4 14 -5 29 -1 32 3 3 4 30 3 58 -1 29 -3 74 -4 101 -1 26 3 49 8 51 6 3 4 5
-2 5 -9 1 -10 8 -4 24 4 12 5 33 1 47 -4 14 -3 35 1 46 4 12 6 24 4 25 -2 2
-6 30 -9 62 -5 61 -25 127 -38 127 -4 0 -8 6 -8 13 0 21 -55 75 -102 99 -38
20 -58 23 -171 24 -70 0 -128 -1 -130 -2z m-28 -586 c3 -41 3 -51 0 -80 -1 -7
-1 -38 0 -68 0 -30 0 -62 0 -70 -1 -8 0 -31 1 -50 2 -51 2 -162 -1 -192 -1 -7
0 -29 1 -48 2 -51 2 -162 -1 -192 -1 -7 0 -29 1 -48 2 -51 2 -162 -1 -192 -1
-7 0 -29 1 -48 1 -32 2 -123 1 -167 -1 -10 -1 -52 0 -93 0 -41 0 -81 0 -87 0
-7 0 -38 0 -68 0 -60 0 -78 -2 -97 -1 -7 0 -29 1 -48 2 -51 2 -162 -1 -192 -1
-7 0 -29 1 -48 2 -51 2 -162 -1 -192 -1 -7 0 -29 1 -48 2 -51 2 -162 -1 -192
-1 -7 0 -29 1 -48 1 -29 1 -104 1 -165 -1 -36 0 -156 0 -167 1 -7 0 -24 -1
-38 -1 -28 6 -142 10 -150 1 -3 3 -9 4 -15 3 -25 47 -103 73 -131 44 -49 100
-76 158 -75 6 0 44 0 85 0 41 1 100 1 130 1 30 1 61 1 68 1 6 0 41 0 77 0 36
0 72 0 80 0 8 0 44 0 80 0 36 0 73 0 83 0 9 0 62 0 117 0 55 0 106 -1 113 -1
26 0 48 0 95 0 27 0 53 -2 58 -5 5 -4 9 -2 9 4 0 6 6 8 13 6 23 -9 107 -11
107 -2 0 4 4 5 10 2 5 -3 45 -6 87 -5 43 0 86 0 96 0 9 0 28 1 42 1 79 0 198
0 225 -1 112 -5 220 -4 220 2 0 4 6 5 14 2 21 -8 106 -10 106 -2 0 4 6 5 13 3
21 -8 187 -11 187 -3 0 4 6 5 14 2 23 -9 106 -10 106 -1 0 5 4 6 9 3 7 -5 40
-7 114 -6 57 1 156 1 177 0 14 -1 66 -2 115 -3 63 -1 89 -6 88 -14 -2 -6 -5
-38 -9 -70 -3 -32 -7 -60 -9 -63 -2 -3 -6 -34 -10 -70 -4 -36 -9 -68 -12 -72
-4 -8 -7 -22 -17 -79 -3 -19 -13 -59 -21 -89 -9 -30 -18 -64 -20 -74 -2 -10
-10 -35 -17 -55 -7 -20 -12 -39 -13 -43 0 -3 -3 -10 -7 -14 -5 -4 -8 -13 -8
-20 0 -7 -5 -25 -12 -41 -6 -15 -12 -32 -14 -38 -1 -5 -8 -23 -15 -40 -7 -16
-13 -32 -14 -35 -33 -97 -170 -354 -263 -493 -148 -219 -403 -490 -576 -612
-16 -11 -40 -29 -55 -40 -14 -11 -35 -26 -46 -32 -11 -7 -59 -37 -107 -68 -48
-30 -92 -55 -98 -55 -5 0 -10 -5 -10 -12 0 -6 -3 -9 -6 -5 -3 3 -23 -4 -43
-17 -20 -12 -52 -28 -71 -36 -19 -7 -42 -19 -51 -27 -8 -7 -22 -13 -31 -13 -8
0 -18 -3 -22 -7 -4 -5 -11 -8 -14 -9 -4 0 -25 -8 -47 -18 -22 -9 -52 -20 -67
-23 -16 -3 -28 -9 -28 -14 0 -5 -3 -8 -7 -7 -8 2 -130 -33 -183 -53 -25 -9
-145 -37 -190 -45 -14 -2 -38 -7 -55 -11 -16 -4 -32 -7 -35 -8 -3 -1 -32 -5
-65 -9 -32 -4 -66 -9 -75 -11 -23 -4 -149 -17 -205 -20 -119 -8 -505 -3 -505
5 0 3 -17 7 -37 8 -33 2 -83 8 -133 17 -8 1 -35 6 -60 10 -101 15 -251 54
-400 102 -41 13 -81 26 -88 28 -7 3 -15 4 -18 4 -4 0 -10 3 -13 8 -3 4 -24 14
-46 22 -106 36 -387 186 -498 266 -174 125 -249 188 -382 320 -106 106 -148
153 -214 240 -17 22 -34 45 -39 50 -49 61 -179 271 -215 348 -12 26 -25 47
-29 47 -5 0 -8 4 -8 10 0 5 -11 33 -24 62 -44 97 -74 172 -110 278 -44 130
-99 347 -91 360 4 6 2 10 -2 10 -5 0 -10 12 -11 28 -3 27 -9 67 -12 67 -1 0
-3 17 -15 120 -33 288 -22 608 30 890 37 197 58 269 167 570 6 17 17 39 24 50
6 11 15 31 19 45 4 14 14 32 22 42 8 9 15 22 17 30 9 58 249 426 345 530 9 9
43 47 76 85 73 83 231 229 345 319 95 74 243 174 258 174 6 0 12 3 14 8 7 17
263 144 373 185 98 36 187 68 205 72 8 2 53 13 100 25 96 25 115 29 150 36 14
2 41 7 60 11 19 3 44 7 55 9 11 1 38 5 60 8 22 3 69 9 105 12 36 3 67 8 69 10
10 9 18 -9 20 -48z"/>
</g>
</svg>
